<svg xmlns="http://www.w3.org/2000/svg" width="20" height="20" viewBox="0 0 20 20" fill="none">
  <path d="M14.1666 6.66671V5.00004C14.1666 2.70004 12.2999 0.833374 9.99992 0.833374C7.69992 0.833374 5.83325 2.70004 5.83325 5.00004V6.66671H3.33325V18.3334H16.6666V6.66671H14.1666ZM7.49992 5.00004C7.49992 3.61671 8.61659 2.50004 9.99992 2.50004C11.3833 2.50004 12.4999 3.61671 12.4999 5.00004V6.66671H7.49992V5.00004ZM14.9999 16.6667H4.99992V8.33337H14.9999V16.6667ZM9.99992 14.1667C10.9166 14.1667 11.6666 13.4167 11.6666 12.5C11.6666 11.5834 10.9166 10.8334 9.99992 10.8334C9.08325 10.8334 8.33325 11.5834 8.33325 12.5C8.33325 13.4167 9.08325 14.1667 9.99992 14.1667Z" fill="#999999"/>
</svg>