<svg width="95" height="130" viewBox="0 0 95 130" fill="none" xmlns="http://www.w3.org/2000/svg">
<g filter="url(#filter0_d_28_97)">
<path d="M32.4 78.152L32.448 78.056L24.768 37.592H33.408L36.72 56.504C37.2 59.192 37.824 64.28 38.112 67.928L43.344 41.432H52.32L57.552 67.928C57.84 64.28 58.368 59.192 58.8 56.504L61.776 37.592H70.416L63.216 78.056L63.264 78.152H53.28L49.536 62.024C48.864 59.096 48.144 53.288 47.904 49.928H47.76C47.52 53.288 46.8 59.096 46.128 62.024L42.384 78.152H32.4Z" fill="white"/>
<path d="M27.4 93.192L27.408 93.176L26.128 86.432H27.568L28.12 89.584C28.2 90.032 28.304 90.88 28.352 91.488L29.224 87.072H30.72L31.592 91.488C31.64 90.88 31.728 90.032 31.8 89.584L32.296 86.432H33.736L32.536 93.176L32.544 93.192H30.88L30.256 90.504C30.144 90.016 30.024 89.048 29.984 88.488H29.96C29.92 89.048 29.8 90.016 29.688 90.504L29.064 93.192H27.4ZM34.4674 93.192V86.432H38.8034V87.648H35.8914V89.12H38.4674V90.336H35.8914V91.96H38.9474V93.192H34.4674ZM39.9205 93.192V86.432H41.3765V91.96H44.0805V93.192H39.9205ZM47.5519 93.32C45.7759 93.32 44.7839 92.416 44.7839 90.624V88.984C44.7839 87.16 45.8399 86.288 47.5599 86.288C49.0159 86.288 50.0239 87.12 50.2239 88.544L48.7599 88.784C48.6559 88.024 48.2479 87.568 47.5279 87.568C46.7759 87.568 46.2719 88.04 46.2719 89.04V90.648C46.2719 91.536 46.7359 92.032 47.5519 92.032C48.3759 92.032 48.7519 91.616 48.8159 90.784L50.3039 90.944C50.2159 92.472 49.3439 93.32 47.5519 93.32ZM53.9755 93.32C52.1115 93.32 51.1355 92.448 51.1355 90.784V88.84C51.1355 87.176 52.1115 86.304 53.9755 86.304C55.8395 86.304 56.8155 87.176 56.8155 88.84V90.784C56.8155 92.448 55.8395 93.32 53.9755 93.32ZM52.6235 90.728C52.6235 91.592 53.0875 92.04 53.9755 92.04C54.8635 92.04 55.3275 91.592 55.3275 90.728V88.896C55.3275 88.032 54.8635 87.584 53.9755 87.584C53.0875 87.584 52.6235 88.032 52.6235 88.896V90.728ZM57.8658 93.192V86.432H59.1058L60.9618 90.496H61.0178L62.8738 86.432H64.1138V93.192H62.7618V90.536C62.7618 90.144 62.8018 89.504 62.8578 89.088L61.5858 92.152H60.3938L59.1218 89.088C59.1778 89.504 59.2178 90.144 59.2178 90.536V93.192H57.8658ZM65.3111 93.192V86.432H69.6471V87.648H66.7351V89.12H69.3111V90.336H66.7351V91.96H69.7911V93.192H65.3111Z" fill="white"/>
</g>
<defs>
<filter id="filter0_d_28_97" x="0.768066" y="21.592" width="93.6479" height="103.728" filterUnits="userSpaceOnUse" color-interpolation-filters="sRGB">
<feFlood flood-opacity="0" result="BackgroundImageFix"/>
<feColorMatrix in="SourceAlpha" type="matrix" values="0 0 0 0 0 0 0 0 0 0 0 0 0 0 0 0 0 0 127 0" result="hardAlpha"/>
<feOffset dy="8"/>
<feGaussianBlur stdDeviation="12"/>
<feComposite in2="hardAlpha" operator="out"/>
<feColorMatrix type="matrix" values="0 0 0 0 0 0 0 0 0 0 0 0 0 0 0 0 0 0 0.16 0"/>
<feBlend mode="normal" in2="BackgroundImageFix" result="effect1_dropShadow_28_97"/>
<feBlend mode="normal" in="SourceGraphic" in2="effect1_dropShadow_28_97" result="shape"/>
</filter>
</defs>
</svg>
