<svg width="156" height="52" viewBox="0 0 156 52" fill="none" xmlns="http://www.w3.org/2000/svg">
<g clip-path="url(#clip0_57_452)">
<rect width="156" height="52" fill="white"/>
<path d="M60.2649 49.5421H56.4414V46.9203H59.9372C60.0464 46.9203 60.101 46.8657 60.101 46.7564V44.6808C60.101 44.5716 60.0464 44.5169 59.9372 44.5169H56.4414V42.1136H60.1557C60.2649 42.1136 60.3195 42.0589 60.3195 41.9497V39.8741C60.3195 39.7648 60.2649 39.7102 60.1557 39.7102H53.9288C53.8195 39.7102 53.7649 39.7648 53.7649 39.8741V51.8363C53.7649 51.9455 53.8195 52.0001 53.9288 52.0001H60.2649C60.3741 52.0001 60.4288 51.9455 60.4288 51.8363V49.706C60.4288 49.6514 60.3741 49.5421 60.2649 49.5421Z" fill="#150E2C"/>
<path d="M113.685 49.5421H109.861V46.9203H113.357C113.466 46.9203 113.521 46.8657 113.521 46.7564V44.6808C113.521 44.5716 113.466 44.5169 113.357 44.5169H109.861V42.1136H113.576C113.685 42.1136 113.739 42.0589 113.739 41.9497V39.8741C113.739 39.7648 113.685 39.7102 113.576 39.7102H107.349C107.239 39.7102 107.185 39.7648 107.185 39.8741V51.8363C107.185 51.9455 107.239 52.0001 107.349 52.0001H113.685C113.794 52.0001 113.849 51.9455 113.849 51.8363V49.706C113.849 49.6514 113.739 49.5421 113.685 49.5421Z" fill="#150E2C"/>
<path d="M89.105 49.5421H85.2815V46.9203H88.7773C88.8865 46.9203 88.9411 46.8657 88.9411 46.7564V44.6808C88.9411 44.5716 88.8865 44.5169 88.7773 44.5169H85.2815V42.1136H88.9957C89.105 42.1136 89.1596 42.0589 89.1596 41.9497V39.8741C89.1596 39.7648 89.105 39.7102 88.9957 39.7102H82.7688C82.6596 39.7102 82.605 39.7648 82.605 39.8741V51.8363C82.605 51.9455 82.6596 52.0001 82.7688 52.0001H89.105C89.2142 52.0001 89.2689 51.9455 89.2689 51.8363V49.706C89.2689 49.6514 89.2142 49.5421 89.105 49.5421Z" fill="#150E2C"/>
<path d="M52.5084 39.7102H46.2815C46.1723 39.7102 46.1177 39.7648 46.1177 39.8741V51.8363C46.1177 51.9455 46.1723 52.0001 46.2815 52.0001H48.6303C48.7395 52.0001 48.7941 51.9455 48.7941 51.8363V46.9203H52.2899C52.3992 46.9203 52.4538 46.8657 52.4538 46.7564V44.6808C52.4538 44.5716 52.3992 44.5169 52.2899 44.5169H48.7941V42.1136H52.5084C52.6177 42.1136 52.6723 42.0589 52.6723 41.9497V39.8741C52.6723 39.7648 52.6177 39.7102 52.5084 39.7102Z" fill="#150E2C"/>
<path d="M96.2607 39.8195C96.2607 39.7648 96.1515 39.7102 96.0969 39.7102H92.7649C92.7103 39.7102 92.6011 39.7648 92.6011 39.8195L90.3616 48.2858V48.3405V51.8363C90.3616 51.9455 90.4162 52.0001 90.5254 52.0001H92.8742C92.9834 52.0001 93.038 51.9455 93.038 51.8363V49.5421H95.7691V51.8363C95.7691 51.9455 95.8238 52.0001 95.933 52.0001H98.2817C98.391 52.0001 98.4456 51.9455 98.4456 51.8363V48.3405V48.2858L96.2607 39.8195ZM93.3111 47.1934L94.4582 41.8951L95.6053 47.1934H93.3111Z" fill="#150E2C"/>
<path d="M122.261 47.4664L121.004 46.3194L122.261 45.3908C122.37 45.3362 122.425 45.2269 122.425 45.0631V42.1135C122.425 40.748 121.332 39.6555 119.967 39.6555H115.105C114.996 39.6555 114.941 39.7101 114.941 39.8194V51.7816C114.941 51.8908 114.996 51.9454 115.105 51.9454H117.454C117.563 51.9454 117.618 51.8908 117.618 51.7816V47.5757H119.584C119.694 47.5757 119.748 47.6303 119.748 47.7396V51.7816C119.748 51.8908 119.803 51.9454 119.912 51.9454H122.315C122.425 51.9454 122.479 51.8908 122.479 51.7816V47.7396C122.37 47.6849 122.315 47.5757 122.261 47.4664ZM119.639 44.8992C119.639 45.1177 119.475 45.2816 119.257 45.2816H117.509V42.0589H119.257C119.475 42.0589 119.639 42.2227 119.639 42.4412V44.8992Z" fill="#150E2C"/>
<path d="M44.4789 39.6555H42.1302C42.0209 39.6555 41.9663 39.7101 41.9663 39.8194V51.8362C41.9663 51.9454 42.0209 52.0001 42.1302 52.0001H44.4789C44.5882 52.0001 44.6428 51.9454 44.6428 51.8362V39.8194C44.6428 39.7101 44.5882 39.6555 44.4789 39.6555Z" fill="#150E2C"/>
<path d="M40.4369 52.0001C40.5462 52.0001 40.6008 51.9454 40.6008 51.8362V49.7059C40.6008 49.5967 40.5462 49.5421 40.4369 49.5421H37.1596V39.8194C37.1596 39.7101 37.105 39.6555 36.9958 39.6555H34.647C34.5378 39.6555 34.4832 39.7101 34.4832 39.8194V51.8362C34.4832 51.9454 34.5378 52.0001 34.647 52.0001H40.4369Z" fill="#150E2C"/>
<path d="M80.9664 39.6555H78.6176C78.5084 39.6555 78.4538 39.7101 78.4538 39.8194V44.5715H75.7773V39.8194C75.7773 39.7101 75.7227 39.6555 75.6134 39.6555H73.2647C73.1555 39.6555 73.1008 39.7101 73.1008 39.8194V51.8362C73.1008 51.9454 73.1555 52.0001 73.2647 52.0001H75.6134C75.7227 52.0001 75.7773 51.9454 75.7773 51.8362V47.0295H78.4538V51.8362C78.4538 51.9454 78.5084 52.0001 78.6176 52.0001H80.9664C81.0756 52.0001 81.1302 51.9454 81.1302 51.8362V39.8194C81.1302 39.7101 81.0756 39.6555 80.9664 39.6555Z" fill="#150E2C"/>
<path d="M71.899 39.7102H64.4158C64.3066 39.7102 64.252 39.7648 64.252 39.8741V42.0043C64.252 42.1136 64.3066 42.1682 64.4158 42.1682H66.8192V51.8363C66.8192 51.9455 66.8738 52.0001 66.983 52.0001H69.3318C69.441 52.0001 69.4956 51.9455 69.4956 51.8363V42.1682H71.899C72.0083 42.1682 72.0629 42.1136 72.0629 42.0043V39.8741C72.0629 39.7648 72.0083 39.7102 71.899 39.7102Z" fill="#150E2C"/>
<path d="M105.929 39.7102H98.4454C98.3361 39.7102 98.2815 39.7648 98.2815 39.8741V42.0043C98.2815 42.1136 98.3361 42.1682 98.4454 42.1682H100.849V51.8363C100.849 51.9455 100.903 52.0001 101.013 52.0001H103.361C103.471 52.0001 103.525 51.9455 103.525 51.8363V42.1682H105.929C106.038 42.1682 106.092 42.1136 106.092 42.0043V39.8741C106.092 39.7648 105.983 39.7102 105.929 39.7102Z" fill="#150E2C"/>
<path d="M1 31.5168H21.4832V0H1V31.5168ZM4.76891 8.19328C4.76891 8.08403 4.87815 7.97479 4.9874 7.97479H8.15546C8.26471 7.97479 8.31933 8.02941 8.37395 8.13866L11.2689 16.0588L14.1092 8.13866C14.1639 8.02941 14.2185 7.97479 14.3277 7.97479H17.4958C17.605 7.97479 17.7143 8.08403 17.7143 8.19328V23.3782C17.7143 23.4874 17.605 23.5966 17.4958 23.5966H14.5462C14.437 23.5966 14.3277 23.4874 14.3277 23.3782V14.2563L12.3613 19.9916C12.3067 20.1008 12.2521 20.1555 12.1429 20.1555H10.2857C10.1765 20.1555 10.1218 20.1008 10.0672 19.9916L8.10084 14.2563V23.3782C8.10084 23.4874 7.9916 23.5966 7.88235 23.5966H4.9874C4.87815 23.5966 4.76891 23.4874 4.76891 23.3782V8.19328Z" fill="#150E2C"/>
<path d="M78.3992 10.7605L76.979 17.479H79.8193L78.3992 10.7605Z" fill="#150E2C"/>
<path d="M68.1851 31.5168H88.6683V0H68.1851V31.5168ZM73.2649 18.9538C73.2649 18.8992 73.2649 18.8992 73.2649 18.9538L76.1052 8.19328C76.1052 8.08403 76.2145 8.02941 76.3237 8.02941H80.5296C80.6388 8.02941 80.6935 8.08403 80.7481 8.19328L83.5884 18.8992V18.9538V23.3782C83.5884 23.4874 83.4792 23.5966 83.3699 23.5966H80.3657C80.2565 23.5966 80.1472 23.4874 80.1472 23.3782V20.4832H76.7061V23.3782C76.7061 23.4874 76.5968 23.5966 76.4876 23.5966H73.4834C73.3741 23.5966 73.2649 23.4874 73.2649 23.3782V18.9538Z" fill="#150E2C"/>
<path d="M101.996 13.7101V11.4706C101.996 11.1975 101.777 10.979 101.504 10.979H99.3193V14.2017H101.504C101.777 14.2017 101.996 13.9832 101.996 13.7101Z" fill="#150E2C"/>
<path d="M102.269 20.1008V17.6974C102.269 17.4243 102.05 17.2058 101.777 17.2058H99.3193V20.5924H101.832C102.105 20.5924 102.269 20.3739 102.269 20.1008Z" fill="#150E2C"/>
<path d="M90.5798 31.5168H111.063V0H90.5798V31.5168ZM95.9328 8.19328C95.9328 8.08403 96.042 7.97479 96.1513 7.97479H102.324C104.017 7.97479 105.382 9.34034 105.382 11.0336V13.9286C105.382 14.0924 105.328 14.2017 105.218 14.3109L103.634 15.5126L105.546 17.042C105.655 17.1513 105.71 17.2605 105.71 17.4244V20.4832C105.71 22.1765 104.345 23.542 102.651 23.542H96.1513C96.042 23.542 95.9328 23.4328 95.9328 23.3235V8.19328Z" fill="#150E2C"/>
<path d="M121.769 20.7016H124.554C124.664 20.7016 124.773 20.5923 124.773 20.4831V11.0881C124.773 10.9789 124.664 10.8696 124.554 10.8696H121.769C121.66 10.8696 121.55 10.9789 121.55 11.0881V20.4831C121.55 20.5923 121.66 20.7016 121.769 20.7016Z" fill="#150E2C"/>
<path d="M112.975 31.5168H133.458V0H112.975V31.5168ZM118.164 20.6471V10.9244C118.164 9.23109 119.529 7.81092 121.277 7.81092H125.046C126.74 7.81092 128.16 9.17647 128.16 10.9244V20.7017C128.16 22.395 126.794 23.8151 125.046 23.8151H121.277C119.584 23.7605 118.164 22.395 118.164 20.6471Z" fill="#150E2C"/>
<path d="M135.315 0V31.5168H155.798V0H135.315ZM150.609 23.3782C150.609 23.4874 150.5 23.5966 150.391 23.5966H147.441C147.332 23.5966 147.277 23.542 147.223 23.4328L145.529 17.916L143.836 23.4328C143.836 23.542 143.727 23.5966 143.617 23.5966H140.668C140.559 23.5966 140.449 23.4874 140.449 23.3782V20.1555C140.449 20.1008 140.449 20.1008 140.504 20.0462L143.071 15.7857L140.613 11.416C140.613 11.3613 140.613 11.3613 140.613 11.3067V8.19328C140.613 8.08403 140.723 7.97479 140.832 7.97479H143.836C143.945 7.97479 144 8.02941 144.054 8.13866L145.529 13.437L147.004 8.13866C147.004 8.02941 147.113 7.97479 147.223 7.97479H150.227C150.336 7.97479 150.445 8.08403 150.445 8.19328V11.3067C150.445 11.3613 150.445 11.3613 150.445 11.416L147.987 15.7857L150.554 20.0462C150.554 20.1008 150.609 20.1008 150.609 20.1555V23.3782Z" fill="#150E2C"/>
<path d="M23.395 31.5168H43.8782V0H23.395V31.5168ZM29.5673 8.19328C29.5673 8.08403 29.6765 7.97479 29.7858 7.97479H37.7059C37.8152 7.97479 37.9244 8.08403 37.9244 8.19328V10.8697C37.9244 10.979 37.8152 11.0882 37.7059 11.0882H33.0085V14.1471H37.4875C37.5967 14.1471 37.7059 14.2563 37.7059 14.3655V16.9328C37.7059 17.042 37.5967 17.1513 37.4875 17.1513H33.0085V20.4832H37.8698C37.9791 20.4832 38.0883 20.5924 38.0883 20.7017V23.3782C38.0883 23.4874 37.9791 23.5966 37.8698 23.5966H29.7858C29.6765 23.5966 29.5673 23.4874 29.5673 23.3782V8.19328Z" fill="#150E2C"/>
<path d="M45.7898 31.5168H66.273V0H45.7898V31.5168ZM51.0335 10.9244C51.0335 9.23109 52.399 7.81092 54.1469 7.81092H57.9158C59.6091 7.81092 61.0293 9.17647 61.0293 10.9244V12.8908C61.0293 13 60.92 13.1092 60.8108 13.1092H57.8066C57.6974 13.1092 57.5881 13 57.5881 12.8908V11.0882C57.5881 10.979 57.4789 10.8697 57.3696 10.8697H54.5839C54.4747 10.8697 54.3654 10.979 54.3654 11.0882V20.4832C54.3654 20.5924 54.4747 20.7017 54.5839 20.7017H57.3696C57.4789 20.7017 57.5881 20.5924 57.5881 20.4832V17.9706H56.1133C56.0041 17.9706 55.8948 17.8613 55.8948 17.7521V15.1849C55.8948 15.0756 56.0041 14.9664 56.1133 14.9664H60.7562C60.8654 14.9664 60.9747 15.0756 60.9747 15.1849V23.3782C60.9747 23.4874 60.8654 23.5966 60.7562 23.5966H58.0797C57.9705 23.5966 57.8612 23.542 57.8612 23.4328L57.752 22.2857L56.5503 23.7605C56.4957 23.8151 56.4411 23.8151 56.3864 23.8151H54.1469C52.4537 23.8151 51.0335 22.4496 51.0335 20.7017V10.9244Z" fill="#150E2C"/>
<path d="M123.408 40.1469H124.172V42.2226H124.664V40.1469H125.483V39.71H123.408V40.1469Z" fill="#150E2C"/>
<path d="M127.668 39.71L127.122 41.4032L126.576 39.71H125.757V42.2226H126.248V40.3108L126.849 42.2226H127.395L127.996 40.3108V42.2226H128.488V39.71H127.668Z" fill="#150E2C"/>
</g>
<defs>
<clipPath id="clip0_57_452">
<rect width="156" height="52" fill="white"/>
</clipPath>
</defs>
</svg>
