<svg width="100" height="100" viewBox="0 0 100 100" fill="none" xmlns="http://www.w3.org/2000/svg">
<path d="M94 40.311V24C94 21.791 92.209 20 90 20H10C7.791 20 6 21.791 6 24V40.36C6.319 40.329 6.641 40.311 6.968 40.311C12.491 40.311 16.968 44.788 16.968 50.311C16.968 55.834 12.491 60.311 6.968 60.311C6.641 60.311 6.319 60.293 6 60.262V76.622C6 78.831 7.791 80.622 10 80.622H90C92.209 80.622 94 78.831 94 76.622V60.311C88.477 60.311 84 55.834 84 50.311C84 44.788 88.477 40.311 94 40.311ZM35 72.122H33V64.499H35V72.122ZM35 60.5H33V52.5H35V60.5ZM35 48.5H33V40.5H35V48.5ZM35 36.5H33V28.5H35V36.5Z" fill="#5924B5"/>
</svg>
