<svg width="88" height="61" viewBox="0 0 88 61" fill="none" xmlns="http://www.w3.org/2000/svg">
<path d="M84 4V16.893C78.223 18.618 74 23.981 74 30.311C74 36.641 78.223 42.004 84 43.729V56.622H4V43.98C10.267 42.591 14.968 36.989 14.968 30.311C14.968 23.633 10.267 18.031 4 16.642V4H84ZM84 0H4C1.791 0 0 1.791 0 4V20.36C0.319 20.329 0.641 20.311 0.968 20.311C6.491 20.311 10.968 24.788 10.968 30.311C10.968 35.834 6.491 40.311 0.968 40.311C0.641 40.311 0.319 40.293 0 40.262V56.622C0 58.831 1.791 60.622 4 60.622H84C86.209 60.622 88 58.831 88 56.622V40.311C82.477 40.311 78 35.834 78 30.311C78 24.788 82.477 20.311 88 20.311V4C88 1.791 86.209 0 84 0Z" fill="#5924B5"/>
<path d="M30 52.122H26V44.499H30V52.122ZM30 40.5H26V32.5H30V40.5ZM30 28.5H26V20.5H30V28.5ZM30 16.5H26V8.5H30V16.5Z" fill="#5924B5"/>
</svg>
